PathFileType	4	(X/Y/Z)	Kaydara	
DataRate	CameraRate	NumFrames	NumMarkers	Units	OrigDataRate	OrigDataStartFrame	OrigNumFrames	
240.00	240.00	4	72	mm	240.00	311	355	
Frame#	Time	Hips			RightUpLeg			RightLeg			RightFoot			RightFoot_End			LeftUpLeg			LeftLeg			LeftFoot			LeftFoot_End			Spine			Spine1			Spine2			Spine3			Neck			Head			Head_End			RightShoulder			RightArm			RightForeArm			RightHand			RightHandThumb1			RightHandThumb2			RightHandThumb3			RightHandThumb3_End			RightInHandIndex			RightHandIndex1			RightHandIndex2			RightHandIndex3			RightHandIndex3_End			RightInHandMiddle			RightHandMiddle1			RightHandMiddle2			RightHandMiddle3			RightHandMiddle3_End			RightInHandRing			RightHandRing1			RightHandRing2			RightHandRing3			RightHandRing3_End			RightInHandPinky			RightHandPinky1			RightHandPinky2			RightHandPinky3			RightHandPinky3_End			LeftShoulder			LeftArm			LeftForeArm			LeftHand			LeftHandThumb1			LeftHandThumb2			LeftHandThumb3			LeftHandThumb3_End			LeftInHandIndex			LeftHandIndex1			LeftHandIndex2			LeftHandIndex3			LeftHandIndex3_End			LeftInHandMiddle			LeftHandMiddle1			LeftHandMiddle2			LeftHandMiddle3			LeftHandMiddle3_End			LeftInHandRing			LeftHandRing1			LeftHandRing2			LeftHandRing3			LeftHandRing3_End			LeftInHandPinky			LeftHandPinky1			LeftHandPinky2			LeftHandPinky3			LeftHandPinky3_End			
		X1	Y1	Z1	X2	Y2	Z2	X3	Y3	Z3	X4	Y4	Z4	X5	Y5	Z5	X6	Y6	Z6	X7	Y7	Z7	X8	Y8	Z8	X9	Y9	Z9	X10	Y10	Z10	X11	Y11	Z11	X12	Y12	Z12	X13	Y13	Z13	X14	Y14	Z14	X15	Y15	Z15	X16	Y16	Z16	X17	Y17	Z17	X18	Y18	Z18	X19	Y19	Z19	X20	Y20	Z20	X21	Y21	Z21	X22	Y22	Z22	X23	Y23	Z23	X24	Y24	Z24	X25	Y25	Z25	X26	Y26	Z26	X27	Y27	Z27	X28	Y28	Z28	X29	Y29	Z29	X30	Y30	Z30	X31	Y31	Z31	X32	Y32	Z32	X33	Y33	Z33	X34	Y34	Z34	X35	Y35	Z35	X36	Y36	Z36	X37	Y37	Z37	X38	Y38	Z38	X39	Y39	Z39	X40	Y40	Z40	X41	Y41	Z41	X42	Y42	Z42	X43	Y43	Z43	X44	Y44	Z44	X45	Y45	Z45	X46	Y46	Z46	X47	Y47	Z47	X48	Y48	Z48	X49	Y49	Z49	X50	Y50	Z50	X51	Y51	Z51	X52	Y52	Z52	X53	Y53	Z53	X54	Y54	Z54	X55	Y55	Z55	X56	Y56	Z56	X57	Y57	Z57	X58	Y58	Z58	X59	Y59	Z59	X60	Y60	Z60	X61	Y61	Z61	X62	Y62	Z62	X63	Y63	Z63	X64	Y64	Z64	X65	Y65	Z65	X66	Y66	Z66	X67	Y67	Z67	X68	Y68	Z68	X69	Y69	Z69	X70	Y70	Z70	X71	Y71	Z71	X72	Y72	Z72	

311	1.292	1921.0129	906.651	56.2195	1917.4581564834693	858.3662821206798	-21.305492464143388	1852.001319791723	447.7410661371991	-67.66458843614215	1962.546017026024	95.72190709081582	-195.05517145314275	1890.7137380849751	14.667104962030074	-37.56618122867163	1930.5794650432406	925.9938943915002	145.98098774437867	1880.2166875058854	526.36368903318	260.090213093758	1782.286212479707	96.70802766341531	290.2089157060973	1666.3923037359234	3.978783252689017	169.90049292206956	1893.7766396998477	1036.96551500027	3.9694584354778053	1843.3362605875589	1110.6686567041643	-34.214088499000546	1784.4755646975398	1182.8094018663394	-73.14766503680353	1718.919779648682	1243.97359983288	-108.84723402525522	1648.1917500763234	1308.846383840145	-146.35849047315023	1583.414729926776	1368.3615956977196	-179.19125014399668	1458.0469244554183	1461.1719973931913	-209.45524184986652	1666.613795217821	1269.5207231814215	-153.44967368815384	1632.9931146993522	1205.3912866881444	-196.86461322231776	1644.4191172485205	1080.1453296790407	-51.44316780823948	1601.0026547994783	1055.1324561766364	25.1935150504174	1612.4977870330522	1076.6588630268952	14.617182749873981	1614.9874687273616	1076.8445224421614	18.859942772589093	1615.2147807816827	1074.1289234974759	24.32227756963465	1614.1155077187816	1069.4313167536102	31.021246545323038	1608.7441196359798	1069.994887705037	21.824525715289557	1612.4231108810757	1075.4038862319385	29.492521003102034	1611.82067337718	1070.8396566098065	39.16420282485357	1610.6518579520007	1065.3283167083605	44.919116511582935	1609.148661190949	1058.963052116107	49.50845012458088	1604.3683030769732	1061.6731313937667	28.58419202218019	1605.590690936789	1062.450033096417	39.71839597677572	1604.3400487184504	1056.3435674960256	51.144592944520475	1602.6452247814682	1049.1540056868255	58.50635273024951	1600.8620498180737	1041.926573964726	63.73144765798121	1601.205894790426	1055.7228212872124	33.13811321814788	1599.6234933334463	1051.4499413277686	46.9933528011123	1597.9248700381656	1044.9746785864102	57.82695802186642	1595.9668916911714	1037.4275484612958	65.3923666610244	1594.1371168052879	1030.3418154625354	70.52534196320966	1597.2733050337629	1048.179906334482	38.37025431426229	1593.475859583014	1039.8373784512137	54.218670998485294	1591.1729787043253	1032.8718155429033	64.19789497332515	1589.2888148101315	1026.5056610936804	70.34696187903774	1587.4054899445966	1019.7331935616743	75.25698773810905	1677.6167434029983	1306.192973094213	-113.81717518276812	1716.8185089633412	1350.831379104122	-30.00476029135818	1761.4559317783146	1133.69814657668	-13.719949875914404	1668.2929779161075	995.1704951668773	50.3817157141018	1663.539285378797	1015.7082629145721	51.08064863744109	1666.5010765758007	1014.0863742440905	56.855814292383386	1670.6186424339385	1009.3225145672017	61.37880954463841	1675.8092536620816	1002.2419701102374	65.57817697313077	1670.3299991988495	1005.9057732187198	52.61374143769645	1681.6702369232548	1003.0218336989872	59.3027738777346	1690.3079653607272	993.8493634543721	65.70754320078943	1693.5336132182279	987.3979776433523	69.7225971195069	1694.7570109933026	981.5530222854434	73.06825728399544	1675.5599419201849	995.7806378544179	53.827197202385946	1689.449537703796	987.4930854153348	61.007336671614	1699.5292503646363	976.1485075495981	68.13681696905039	1703.7348130651912	967.7242331819142	73.04830457206717	1705.2260490916517	961.0172282974655	76.74186176443011	1678.9736294991935	988.749244092772	54.500650332441026	1694.4085545534194	975.3598782849193	61.481588881348316	1703.8407715420744	964.1193254430581	67.82821441770307	1708.2408138951168	955.2751470594027	72.63611546193961	1709.805685076851	948.6284851180284	76.14234442461792	1682.5156243525523	980.3472535060454	55.1867313697037	1698.8869621798403	963.0483659330489	61.97057208489179	1707.381502815253	951.9952083507179	67.22914350135981	1711.0463753989302	944.5515342861088	70.82138918100074	1712.6947293781298	938.0923706171127	73.97645405814953
312	1.296	1921.0129	906.651	56.2195	1917.077705438808	858.219470603075	-21.390034837636275	1851.722906950581	447.556733769295	-67.61108562450956	1962.7620890289688	95.70177728755627	-195.2788810288812	1890.9577020059319	14.626257323847007	-37.78734454158513	1930.9514428210537	926.1415398821907	146.07223359506133	1880.6209155496476	526.5418130380568	260.3046438108429	1782.1939163310867	96.95402635345421	290.19478385546904	1666.3668640610097	4.159700121411335	169.86253096496858	1893.8244683841785	1036.966854514236	3.9442200510153804	1843.376681314738	1110.626441977372	-34.327841593816736	1784.496972704731	1182.7071758736156	-73.3722619347585	1718.900289180121	1243.7889148290662	-109.20109580545179	1648.13150088229	1308.5760042818142	-146.85251812274626	1583.3248002793111	1368.0254768611014	-179.8132817918398	1458.0378682095347	1460.8761292804943	-210.38807271857453	1666.4953931027794	1269.1472677455029	-153.8928006843488	1632.3269653639873	1204.6617460935602	-196.9248724827573	1643.8515486090623	1080.199247416653	-50.60573632251136	1600.2508050855622	1055.9772950432107	27.42584544397116	1611.806002998977	1077.582522769715	16.898521982323384	1614.3838744707332	1077.7656576039649	21.267724899306295	1614.6637566181735	1075.0513775844156	26.83115437934328	1613.6007455522652	1070.3574974971225	33.625555182045304	1608.0211857958716	1070.947679415813	24.154740004721486	1611.7330592981457	1076.4859204559912	32.030912936838405	1611.1800090132215	1071.9535017100927	41.86006539133212	1610.0611016017822	1066.4174969351654	47.69302445615732	1608.6121599025641	1060.0018442010212	52.33355950700917	1603.6214326249865	1062.6270188486014	30.94322127647448	1604.8629410229719	1063.5305896916836	42.29605477096736	1603.6629612494692	1057.4584911871652	53.897228146644764	1602.0267928488702	1050.2390062609288	61.35465230426476	1600.3022297467126	1042.9563610315568	66.6365063443718	1600.440955314381	1056.674824508462	35.51218397606	1598.859068085151	1052.5156879824538	49.576416955658026	1597.2012689491362	1046.069815290793	60.56540074828148	1595.2980992644557	1038.4935252650291	68.22460825105996	1593.522600088662	1031.3557347943645	73.41166960118683	1596.4891105220652	1049.1209793836897	40.755643471812554	1592.6791986266771	1040.8782155080492	56.80278792386392	1590.4038149581174	1033.934811609564	66.90999213044604	1588.5571185599558	1027.546720279712	73.12919856160399	1586.7204240833837	1020.7277566432223	78.08813240223397	1677.647575404222	1306.0869346638406	-114.27226003871063	1717.3952778843964	1351.2897280177926	-30.55029607995168	1761.3739853370028	1133.5619347077682	-13.981273243831096	1667.1209019842918	995.1338212972069	51.28358382872276	1662.4339740775883	1015.7698898779889	52.10789927324672	1665.4634128091654	1014.2342152119538	58.08840638805351	1669.6400475008802	1009.5248530892018	62.75362156841553	1674.8901345258464	1002.4849990242275	67.07088160663832	1669.2791054909424	1005.9575952768259	53.643512048156495	1680.8254027086473	1003.1838199995717	60.551922096828825	1689.5775540851946	994.0824398367605	67.14240019715253	1692.8327049833586	987.6681548571845	71.27465950018961	1694.05243533431	981.8491194689532	74.7185100176187	1674.533024756024	995.8132831233676	54.84878328321545	1688.6365807688699	987.6228172052628	62.23845698277868	1698.8436100390468	976.3529150829867	69.56883287649926	1703.0859458229552	967.9720099736796	74.62088295136806	1704.573744337322	961.2926949603866	78.42146924851906	1677.9588032289357	988.765574140039	55.51055630301744	1693.5971899026829	975.4491764163521	62.66827249373639	1703.1425470332047	964.270601763652	69.18788284029125	1707.5792140790963	955.4666026599189	74.13024590030035	1709.1413979996987	948.8451939710765	77.73657898609211	1681.5055108724118	980.3412553212056	56.179161250870756	1698.067819937863	963.0957045431502	63.11344176991615	1706.6554601436865	952.0870023469591	68.5064633838804	1710.3482531784864	944.6701348630432	72.19481491894635	1711.99492212984	938.2319011700569	75.43742215405221
313	1.3	1921.0129	906.651	56.2195	1916.6960217617032	858.0761203581784	-21.47489776799145	1851.4485669183814	447.3749070035619	-67.55594600286695	1962.9689118602018	95.67673050250154	-195.4904821613384	1891.1940607919364	14.58044268833105	-37.995723260322485	1931.3245284955071	926.2852747634877	146.16280981976502	1881.0278283553391	526.7178204466122	260.5242860766796	1782.0627443441356	97.21061574521187	290.21384423682764	1666.3090826616399	4.346790466842246	169.85534607675893	1893.8728933639788	1036.9701023334753	3.923406834432065	1843.4190276630247	1110.5821242854993	-34.44665317401513	1784.5214147212787	1182.5969699085615	-73.6148647275796	1718.8844264579623	1243.5877396799938	-109.59034287490287	1648.074307008281	1308.2809218167024	-147.39635603144342	1583.2398624675207	1367.6620398183288	-180.49432606228265	1458.0050726639279	1460.544455189349	-211.27536043999206	1666.383165844775	1268.7495637394225	-154.37853115799714	1631.672433099901	1203.9036806632155	-197.04356063312076	1643.3145590204595	1080.2470157954228	-49.821395137280675	1599.511452327329	1057.0045325821143	29.701426507645614	1611.1221661096201	1078.6911934584523	19.221244258751966	1613.79019770474	1078.8766362933443	23.71544221760973	1614.1254968552416	1076.1665767200252	29.3793424427964	1613.1023838450978	1071.478443451319	36.26898267669607	1607.3108516178127	1072.0837064775665	26.52759958071274	1611.0621966330536	1077.752246511518	34.61218538554141	1610.564301627391	1073.254228547682	44.598649266074425	1609.497822996588	1067.6964840566604	50.5090485030503	1608.1045045324356	1061.2337507555123	55.199941505431276	1602.8910021538413	1063.76292732749	33.345915222427045	1604.160137338536	1064.7935412065665	44.918158505044964	1603.0175991161293	1058.7584740394109	56.69426902381113	1601.4433616718286	1051.5125175133132	64.24669055096889	1599.779022489684	1044.1782396698472	69.58441138431955	1599.695001446579	1057.8079424434234	37.930639716534515	1598.1234553422032	1053.7620341150337	52.20520687342739	1596.5128755933085	1047.347710282711	63.34966959541278	1594.667931838885	1039.7455019993547	71.10210350519226	1592.9483436316002	1032.558979811692	76.34244570282328	1595.7266507049226	1050.242262200777	43.18619327590422	1591.914980981414	1042.0981618354756	59.43379388384178	1589.6729284096625	1035.1783889511494	69.66926420436202	1587.8665355478147	1028.770600503923	75.95829190196068	1586.0781201672344	1021.9080169080073	80.96547869222887	1677.6786134181368	1305.9612516046013	-114.77484243589929	1717.971923612874	1351.7172462332321	-31.135240380083545	1761.1880275873275	1133.3728433384592	-14.225960117660966	1665.8286756605098	995.0479931270569	52.182107492985566	1661.2059119442536	1015.7921910781256	53.12712651012773	1664.2979588093458	1014.3624408978607	59.31626529669637	1668.5299864056874	1009.7208388350297	64.12839379806252	1673.8363430353256	1002.7323359642226	68.56951429699298	1668.1047694989522	1005.9683331487045	54.67340456094432	1679.8508610998238	1003.3196675330909	61.81557150212861	1688.7123107360917	994.3051183289505	68.60197516467704	1691.9939826929299	987.9398684855255	72.85483301476775	1693.2077118797204	982.1580833411346	76.39768727078516	1673.382396327455	995.8033183548948	55.87653624576313	1687.6936544876576	987.7236883429902	63.49303890397417	1698.0223916308441	976.5453957592568	71.03620969906781	1702.2978949417134	968.2221432603379	76.23327642307765	1703.7796982579348	961.5828569202966	80.14195692010736	1676.820239511108	988.737780978745	56.53054849043989	1692.6564725777914	975.5052001391404	63.883993769198156	1702.310075224109	964.4030921674107	70.58770019800238	1706.7798836340878	955.6529066127894	75.66921503142103	1708.3369763154553	949.0682858560699	79.37684071443654	1680.3717699276888	980.289382794893	57.18565032218709	1697.1199842573114	963.1058639725153	64.29025919201645	1705.796816854314	952.1527514466151	69.82770165800825	1709.5149979761436	944.7724084943736	73.61609930525789	1711.1578539514041	938.3651928085827	76.94760004810759
314	1.304	1921.0129	906.651	56.2195	1916.3172138448163	857.9368871806023	-21.56137640867484	1851.1790979697853	447.1962598791073	-67.49668079894603	1963.165011781186	95.64224464273885	-195.67601685106803	1891.4203045598492	14.525594697187534	-38.17759858329013	1931.6950237393546	926.4243997457237	146.25375906576917	1881.4295293720368	526.88908407495	260.74251269686897	1781.9882872649737	97.44921788706634	290.25699437791616	1666.312787248658	4.512600610745987	169.87058042942158	1893.9199717165254	1036.975415582569	3.9081610489248906	1843.4564560201738	1110.5580319924072	-34.51843900493053	1784.5386622383305	1182.5317106973837	-73.7570892502602	1718.8625995260254	1243.4652612198915	-109.81332526915168	1648.0103775470136	1308.098871908745	-147.70106371307662	1583.147617235024	1367.4421421706365	-180.86696170424062	1457.911600677971	1460.3333653361753	-211.66672043317172	1666.2457927921682	1268.4638577235808	-154.64648219884523	1630.9987008125515	1203.2526213289957	-196.95612464313805	1642.7767634712197	1080.4073953609284	-48.835587338263004	1598.7454864725055	1058.2855186907166	32.23249155574758	1610.4031382535484	1080.0611708569093	21.798236705314714	1613.160213766767	1080.2564835270364	26.419376628373826	1613.551297623877	1077.555261848771	32.185529992758035	1612.5693681077157	1072.876170583698	39.172259956261925	1606.5681332579131	1073.479314004202	29.15595341042057	1610.356588158717	1079.2850746995723	37.451386121242074	1609.9149306631293	1074.8267820302895	47.597887181028405	1608.902299024143	1069.2508794287774	53.58744997891297	1607.5662829068472	1062.744210096412	58.3301490363154	1602.1315132167888	1065.1564365273177	36.00522836709454	1603.4277696252	1066.3197742269917	47.79986358709595	1602.3443019476165	1060.3272643859032	59.75402668142745	1600.833924316009	1053.0590206679817	67.4035940550218	1599.2317529246984	1045.6764844040754	72.798797872137	1598.9223786433847	1059.197076427772	40.606440970827826	1597.3627322960856	1055.26808947921	55.09462203424092	1595.8012542893384	1048.889835050291	66.39741926091435	1594.0166439994946	1041.2655858255805	74.2452257348429	1592.3549065990405	1034.0334294672634	79.54040492625549	1594.9405064815005	1051.6175988455277	45.874909721306935	1591.1302804638854	1043.5743154320219	62.326458524473416	1588.9237782117125	1036.6813105138508	72.69268774182075	1587.1595684674617	1030.2564204130435	79.05320131615261	1585.4213510103623	1023.3528271411178	84.11007450134227	1677.722285961627	1305.926334405814	-115.06586982997185	1718.5616382244707	1352.2168592730843	-31.492742867679485	1760.8637558102562	1133.2484352246674	-14.10296156104205	1664.3824995744717	995.0380344184247	53.43834934031643	1659.8208594992611	1015.8982144213505	54.501260405149196	1662.9725716335588	1014.5867426768388	60.900479513102766	1667.258224965582	1010.0212631378405	65.86182321223872	1672.6196181683572	1003.0908770613088	70.42983070385762	1666.7742133870663	1006.0622447329888	56.06255919487111	1678.7175225864755	1003.5507119818392	63.44574057987742	1687.6862843452282	994.6335191929693	70.43324601574534	1690.9931054844983	988.3242977131617	74.80837264630723	1692.1996073833893	982.5858573161773	78.45056909620416	1672.076396678111	995.875557656127	57.26682187356717	1686.5933031060272	987.9179614314993	65.11900267969101	1697.041700123079	976.8426013458607	72.88102460949622	1701.3487750023269	968.5853618265163	78.22531934008404	1702.823268115231	961.9927312925957	82.24255987542801	1675.5269745429873	988.7911780116145	57.91520823821941	1691.5598015694225	975.6515078740655	65.47419137557193	1701.3199922257654	964.635549047506	72.36767504517735	1705.8214674953024	955.9471430074805	77.59068845128961	1707.3722661846539	949.4054945383842	81.40014571650987	1679.0841471820313	980.317348385224	58.558988456599174	1696.017634958292	963.2033040210416	65.8442983356058	1704.7825322502094	952.3132057946584	71.53129746787756	1708.5251254475822	944.9750379531774	75.42173795955048	1710.1631582213563	938.6042268447951	78.8427728334618
